<svg xmlns="http://www.w3.org/2000/svg" width="128" height="128" viewBox="0 0 128 128">
  <g fill="none" fill-rule="evenodd">
    <circle cx="64" cy="64" r="64" fill="#F7931A"/>
    <path fill="#FFFFFF" d="M84,45.6 C81.6,38.4 74.4,36 65.6,37.6 L62.4,27.2 L56,29.6 L59.2,39.2 C57.6,39.2 56,40 54.4,40.8 L51.2,30.4 L44.8,32 L48,42.4 C46.4,43.2 44.8,43.8 43.6,44.3 L43.4,44.2 L36,46.4 L37.6,53.6 C37.6,53.6 42.4,51.2 42.4,51.4 C44,51 45.6,52 45.6,53.6 L49.6,65.6 C49.9,65.6 50.1,65.6 50.1,65.6 C49.9,65.6 49.8,65.6 49.6,65.9 L55.2,81.6 C55.2,82.4 55,83.4 54.1,83.7 C53.6,84 42.1,85.6 42.1,85.6 L45.2,92.8 L59.2,90.4 C60.8,90 62.4,89.6 64,89 L67.2,99.4 L73.6,97 L70.4,86.2 C72,85.6 73.6,85 75.2,84.2 L78.4,96 L84.8,94.4 L81.6,84 C88.8,80 93.6,74.4 92,65.6 C90.8,58.4 86.4,54.4 80,53.6 C84,50.9 85.6,47.2 84,45.6 Z M78.4,71.2 C76.8,77.6 67.2,75 62.4,73.6 L58.4,59 C63.2,60.5 80,64 78.4,71.2 Z M64.4,51 C69,52 77.6,53.6 78.4,60 C79.6,66.4 70.4,64.5 65.6,63.2 L61.6,49.5 C61.6,49.5 60.4,49.5 64.4,51 Z"/>
  </g>
</svg>
