<svg xmlns="http://www.w3.org/2000/svg" width="16" height="16" viewBox="0 0 16 16">
  <g fill="none" fill-rule="evenodd">
    <circle cx="8" cy="8" r="8" fill="#F7931A"/>
    <path fill="#FFFFFF" d="M10.5,5.7 C10.2,4.8 9.3,4.5 8.2,4.7 L7.8,3.4 L7,3.6 L7.4,4.9 C7.2,4.9 7,5 6.8,5.1 L6.4,3.8 L5.6,4 L6,5.3 C5.8,5.4 5.6,5.5 5.5,5.5 L5.5,5.5 L4.5,5.8 L4.7,6.6 C4.7,6.6 5.3,6.4 5.3,6.4 C5.5,6.4 5.7,6.5 5.7,6.7 L6.2,8.2 C6.2,8.2 6.3,8.2 6.3,8.2 C6.3,8.2 6.2,8.2 6.2,8.2 L6.9,10.2 C6.9,10.3 6.9,10.4 6.8,10.5 C6.7,10.5 6.2,10.7 6.2,10.7 L6.5,11.6 L7.4,11.3 C7.6,11.2 7.8,11.2 8,11.1 L8.4,12.4 L9.2,12.2 L8.8,10.9 C9,10.8 9.2,10.7 9.4,10.6 L9.8,11.9 L10.6,11.7 L10.2,10.4 C11.1,10 11.7,9.3 11.5,8.2 C11.4,7.3 10.8,6.8 10,6.7 C10.5,6.4 10.7,5.9 10.5,5.7 Z M9.8,8.9 C9.6,9.7 8.4,9.4 7.8,9.2 L7.3,7.4 C7.9,7.6 10,8 9.8,8.9 Z M8.1,6.4 C8.6,6.5 9.7,6.7 9.8,7.5 C10,8.3 8.8,8.1 8.2,7.9 L7.7,6.2 C7.7,6.2 7.6,6.2 8.1,6.4 Z"/>
  </g>
</svg>
