<?xml version="1.0" encoding="UTF-8" standalone="no"?>
<svg width="100" height="100" viewBox="0 0 100 100" fill="none" xmlns="http://www.w3.org/2000/svg">
  <circle cx="50" cy="50" r="50" fill="white"/>
  <circle cx="50" cy="50" r="19" fill="#4285F4" stroke="white" stroke-width="4"/>
  <path d="M84.667 39.333H53.333C50.817 39.333 48.667 41.484 48.667 44V44C48.667 46.516 50.817 48.667 53.333 48.667H60.667C63.183 48.667 65.333 50.817 65.333 53.333V53.333C65.333 55.85 67.484 58 70 58H78" stroke="#EA4335" stroke-width="10" stroke-linecap="round"/>
  <path d="M18.667 39.333L27.333 39.333C29.85 39.333 32 41.484 32 44V44C32 46.516 34.15 48.667 36.667 48.667L42.667 48.667" stroke="#FBBC05" stroke-width="10" stroke-linecap="round"/>
  <path d="M32 81.334C32 81.334 47.5 71.667 50 54" stroke="#34A853" stroke-width="10" stroke-linecap="round"/>
</svg>