<?xml version="1.0" encoding="UTF-8" standalone="no"?>
<svg width="100" height="100" viewBox="0 0 100 100" fill="none" xmlns="http://www.w3.org/2000/svg">
  <circle cx="50" cy="50" r="50" fill="white"/>
  <path d="M84.666 40C78.666 16 54.666 12 50.666 12C15.333 12 10.666 56.667 34.666 72C58.666 87.333 90.666 64 84.666 40Z" fill="url(#firefox-gradient)"/>
  <path d="M48 20C40 20 24 28 20 48C20 48 22 40 30 36C30 36 24 44 24 56C24 68 34 84 62 76C62 76 72 72 76 64C76 64 86 48 74 32C74 32 64 20 48 20Z" fill="url(#firefox-blue)"/>
  <path d="M74 32C74 32 78 41.333 72 54C66 66.666 50 70 46 68C42 66 24 32 74 32Z" fill="url(#firefox-orange)"/>
  <defs>
    <linearGradient id="firefox-gradient" x1="50" y1="12" x2="50" y2="80" gradientUnits="userSpaceOnUse">
      <stop stop-color="#FF9500"/>
      <stop offset="0.5" stop-color="#FF5B00"/>
      <stop offset="1" stop-color="#F70046"/>
    </linearGradient>
    <linearGradient id="firefox-blue" x1="48" y1="20" x2="48" y2="76" gradientUnits="userSpaceOnUse">
      <stop stop-color="#006BFF"/>
      <stop offset="1" stop-color="#00D2FF"/>
    </linearGradient>
    <linearGradient id="firefox-orange" x1="60" y1="32" x2="60" y2="68" gradientUnits="userSpaceOnUse">
      <stop stop-color="#FF9900"/>
      <stop offset="1" stop-color="#FF4218"/>
    </linearGradient>
  </defs>
</svg>