<svg xmlns="http://www.w3.org/2000/svg" width="48" height="48" viewBox="0 0 48 48">
  <g fill="none" fill-rule="evenodd">
    <circle cx="24" cy="24" r="24" fill="#F7931A"/>
    <path fill="#FFFFFF" d="M31.5,17.1 C30.6,14.4 27.9,13.5 24.6,14.1 L23.4,10.2 L21,10.8 L22.2,14.7 C21.6,14.7 21,14.9 20.4,15.2 L19.2,11.4 L16.8,12 L18,15.9 C17.4,16.1 16.8,16.4 16.4,16.6 L16.3,16.5 L13.5,17.4 L14.1,19.8 C14.1,19.8 15.9,19.2 15.9,19.3 C16.5,19.1 17.1,19.5 17.1,20.1 L18.6,24.6 C18.7,24.6 18.8,24.6 18.8,24.6 C18.7,24.6 18.7,24.6 18.6,24.7 L20.7,30.6 C20.7,30.9 20.6,31.3 20.3,31.4 C20.1,31.5 18.3,32.1 18.3,32.1 L19.5,34.8 L22.2,33.9 C22.8,33.7 23.4,33.6 24,33.4 L25.2,37.3 L27.6,36.7 L26.4,32.8 C27,32.6 27.6,32.4 28.2,32.1 L29.4,36 L31.8,35.4 L30.6,31.5 C33.3,30 35.1,27.9 34.5,24.6 C34.1,21.9 32.4,20.4 30,20.1 C31.5,19.1 32.1,17.7 31.5,17.1 Z M29.4,26.7 C28.8,29.1 25.2,28.1 23.4,27.6 L21.9,22.1 C23.7,22.7 30,24 29.4,26.7 Z M24.2,19.1 C25.8,19.5 29.1,20.1 29.4,22.5 C29.9,24.9 26.4,24.2 24.6,23.7 L23.1,18.6 C23.1,18.6 22.8,18.6 24.2,19.1 Z"/>
  </g>
</svg>
