<?xml version="1.0" encoding="UTF-8" standalone="no"?>
<svg width="40" height="40" viewBox="0 0 40 40" fill="none" xmlns="http://www.w3.org/2000/svg">
  <!-- Bitcoin logo background -->
  <circle cx="20" cy="20" r="17" fill="#F7931A"/>
  
  <!-- Bitcoin symbol -->
  <path d="M28.5 17.8333C28.8333 21.3333 26.3333 23.25 22.6667 24.5L23.8333 29.1667L21 29.8333L19.8333 25.3333C19.0833 25.5 18.3333 25.6667 17.5833 25.8333L18.75 30.3333L15.9167 31L14.75 26.3333C14.0833 26.5 13.4167 26.6667 12.75 26.8333L9.91667 27.6667L10.5833 24.5C10.5833 24.5 12.6667 24 12.5833 24C13.75 23.6667 13.9167 22.8333 13.9167 22.1667L12.5833 16.6667C12.6667 16.6667 12.75 16.6667 12.8333 16.6333C12.75 16.6667 12.6667 16.6667 12.5833 16.6667L10.5 11.1667C10.5 10.6667 10.1667 10 8.16667 10.3333C8.2 10.3 6.16667 10.8333 6.16667 10.8333L5.5 8.16667L9.5 7.16667C10.25 7 11 6.83333 11.75 6.66667L10.5833 2.16667L13.4167 1.5L14.5833 6C15.3333 5.83333 16.0833 5.66667 16.8333 5.5L15.6667 1L18.5 0.333333L19.6667 4.83333C24.3333 4 27.8333 4.33333 29.3333 8.5C30.5 11.8333 29.1667 13.8333 27.1667 15.1667C28.8333 15.6667 30.1667 17 30.5 19.8333L28.5 17.8333ZM23 9.83333C22.1667 6.5 16.5 8.33333 14.6667 8.83333L16.1667 14.8333C18 14.3333 23.8333 13.1667 23 9.83333ZM24.8333 17.8333C23.9167 14 17 16.1667 14.8333 16.6667L16.5 23.1667C18.6667 22.6667 25.75 21.6667 24.8333 17.8333Z" fill="white"/>
  
  <!-- Clock overlay -->
  <circle cx="30" cy="10" r="8" fill="#4D4D4E" stroke="white" stroke-width="0.5"/>
  <line x1="30" y1="6" x2="30" y2="10" stroke="white" stroke-width="0.7" stroke-linecap="round"/>
  <line x1="30" y1="10" x2="34" y2="10" stroke="white" stroke-width="0.7" stroke-linecap="round"/>
  <circle cx="30" cy="10" r="0.7" fill="white"/>
</svg>