<?xml version="1.0" encoding="UTF-8" standalone="no"?>
<svg width="48" height="48" viewBox="0 0 48 48" fill="none" xmlns="http://www.w3.org/2000/svg">
  <rect x="6" y="12" width="16" height="24" rx="2" fill="#F7931A" opacity="0.7"/>
  <rect x="26" y="12" width="16" height="24" rx="2" fill="#F7931A"/>
  <path d="M13 22C13 21.4477 13.4477 21 14 21C14.5523 21 15 21.4477 15 22V25C15 25.5523 14.5523 26 14 26C13.4477 26 13 25.5523 13 25V22Z" fill="white"/>
  <path d="M11.5 23C11.5 22.4477 11.9477 22 12.5 22C13.0523 22 13.5 22.4477 13.5 23V26C13.5 26.5523 13.0523 27 12.5 27C11.9477 27 11.5 26.5523 11.5 26V23Z" fill="white"/>
  <path d="M14.5 23C14.5 22.4477 14.9477 22 15.5 22C16.0523 22 16.5 22.4477 16.5 23V26C16.5 26.5523 16.0523 27 15.5 27C14.9477 27 14.5 26.5523 14.5 26V23Z" fill="white"/>
  <path d="M33 21L32 22.732V25.268L33 27L34 25.268V22.732L33 21Z" fill="white"/>
  <path d="M33 22.5L35 24V26L33 27.5L31 26V24L33 22.5Z" fill="white"/>
</svg>