<?xml version="1.0" encoding="UTF-8" standalone="no"?>
<svg width="48" height="48" viewBox="0 0 48 48" fill="none" xmlns="http://www.w3.org/2000/svg">
  <path d="M24 8C15.178 8 8 15.178 8 24C8 32.822 15.178 40 24 40C29.8 40 34.908 36.832 37.788 32H33.2C30.88 34.784 27.64 36.4 24 36.4C17.16 36.4 11.6 30.84 11.6 24C11.6 17.16 17.16 11.6 24 11.6C28.52 11.6 32.448 14.128 34.4 17.84H29.6V21.44H40V11.04H36.4V14.608C33.76 10.664 29.2 8 24 8Z" fill="#F7931A"/>
  <path d="M26 18V24C26 24.4 25.8 24.8 25.4 25L21 27.8L19.8 26L23.6 23.6V18H26Z" fill="#F7931A"/>
</svg>