<?xml version="1.0" encoding="UTF-8" standalone="no"?>
<svg width="48" height="48" viewBox="0 0 48 48" fill="none" xmlns="http://www.w3.org/2000/svg">
  <path d="M24 6L8 12V22C8 32.4 14.8 42 24 44C33.2 42 40 32.4 40 22V12L24 6Z" fill="#F7931A" opacity="0.3"/>
  <path d="M24 10L12 14.6V22C12 30.2 17.2 37.8 24 39.5C30.8 37.8 36 30.2 36 22V14.6L24 10Z" fill="#F7931A"/>
  <path d="M26.6667 21.3333H29.3333V24H26.6667V21.3333ZM18.6667 21.3333H21.3333V24H18.6667V21.3333ZM24 30.6667C21.0667 30.6667 18.6733 28.68 18.0267 26H29.9733C29.3267 28.68 26.9333 30.6667 24 30.6667Z" fill="white"/>
</svg>