<?xml version="1.0" encoding="UTF-8" standalone="no"?>
<svg width="48" height="48" viewBox="0 0 48 48" fill="none" xmlns="http://www.w3.org/2000/svg">
  <path d="M24 6C14.0589 6 6 14.0589 6 24C6 33.9411 14.0589 42 24 42C33.9411 42 42 33.9411 42 24C42 14.0589 33.9411 6 24 6ZM24 38C16.268 38 10 31.732 10 24C10 16.268 16.268 10 24 10C31.732 10 38 16.268 38 24C38 31.732 31.732 38 24 38Z" fill="#F7931A"/>
  <path d="M31 21C32.6569 21 34 19.6569 34 18C34 16.3431 32.6569 15 31 15C29.3431 15 28 16.3431 28 18C28 19.6569 29.3431 21 31 21Z" fill="#F7931A"/>
  <path d="M17 21C18.6569 21 20 19.6569 20 18C20 16.3431 18.6569 15 17 15C15.3431 15 14 16.3431 14 18C14 19.6569 15.3431 21 17 21Z" fill="#F7931A"/>
  <path d="M24 34C25.6569 34 27 32.6569 27 31C27 29.3431 25.6569 28 24 28C22.3431 28 21 29.3431 21 31C21 32.6569 22.3431 34 24 34Z" fill="#F7931A"/>
  <path d="M24 26C25.6569 26 27 24.6569 27 23C27 21.3431 25.6569 20 24 20C22.3431 20 21 21.3431 21 23C21 24.6569 22.3431 26 24 26Z" fill="#F7931A"/>
  <path d="M17.5 27.5L22.5 29.5" stroke="#F7931A" stroke-width="2" stroke-linecap="round"/>
  <path d="M25.5 29.5L30.5 27.5" stroke="#F7931A" stroke-width="2" stroke-linecap="round"/>
  <path d="M19 21.5L22 22.5" stroke="#F7931A" stroke-width="2" stroke-linecap="round"/>
  <path d="M26 22.5L29 21.5" stroke="#F7931A" stroke-width="2" stroke-linecap="round"/>
</svg>