<?xml version="1.0" encoding="UTF-8" standalone="no"?>
<svg width="200" height="200" viewBox="0 0 200 200" fill="none" xmlns="http://www.w3.org/2000/svg">
  <!-- Bitcoin logo background -->
  <circle cx="100" cy="100" r="85" fill="#F7931A"/>
  
  <!-- Bitcoin symbol -->
  <path d="M142.5 89.167c1.667 17.5-10.834 27.083-29.167 33.333l5.834 23.333-14.167 3.334-5.833-22.5c-3.75.833-7.5 1.667-11.25 2.5l5.833 22.5-14.166 3.333-5.834-23.333c-3.333.834-6.666 1.667-10 2.5l-19.166 4.167 3.333-15.833s10.417-2.5 10-2.5c5.833-1.667 6.667-5.833 6.667-9.167l-6.667-27.5c.417 0 .833 0 1.25-.167-.417 0-.833 0-1.25.167L52.5 55.833c0-2.5-1.667-5.833-6.667-4.166.167-.167-10 2.5-10 2.5l-3.333-13.334 20-5c3.75-.833 7.5-1.667 11.25-2.5l-5.833-22.5 14.166-3.333 5.834 22.5c3.75-.833 7.5-1.667 11.25-2.5l-5.834-22.5 14.167-3.333 5.833 22.5c23.334-4.167 40.834-2.5 48.334 18.333 5.833 16.667-1.667 26.667-11.667 33.333 8.333 2.5 15 9.167 16.667 25.834zM115 49.167c-4.167-16.667-32.5-7.5-41.667-5l7.5 30c9.167-2.5 38.334-8.333 34.167-25zM124.167 89.167C119.583 70 85 80.833 74.167 83.333l8.333 32.5c10.833-2.5 46.25-7.5 41.667-26.666z" fill="white"/>
  
  <!-- Clock overlay -->
  <circle cx="150" cy="50" r="40" fill="#4D4D4E" stroke="white" stroke-width="2"/>
  <line x1="150" y1="30" x2="150" y2="50" stroke="white" stroke-width="3" stroke-linecap="round"/>
  <line x1="150" y1="50" x2="170" y2="50" stroke="white" stroke-width="3" stroke-linecap="round"/>
  <circle cx="150" cy="50" r="3" fill="white"/>
</svg>