<?xml version="1.0" encoding="UTF-8" standalone="no"?>
<svg width="800" height="400" viewBox="0 0 800 400" fill="none" xmlns="http://www.w3.org/2000/svg">
  <!-- Background -->
  <rect width="800" height="400" fill="#F5F5F7"/>
  
  <!-- Header -->
  <text x="50" y="60" font-family="Arial" font-size="28" font-weight="bold" fill="#1A237E">Salt of the Earth Premium Electrolyte Supplements</text>
  
  <text x="50" y="100" font-family="Arial" font-size="16" fill="#333333">Discover the natural power of Salt of the Earth Electrolytes. Our premium</text>
  <text x="50" y="125" font-family="Arial" font-size="16" fill="#333333">electrolyte supplements help you stay hydrated, replenish essential minerals,</text>
  <text x="50" y="150" font-family="Arial" font-size="16" fill="#333333">and enhance your overall well-being. Elevate your performance and recovery</text>
  <text x="50" y="175" font-family="Arial" font-size="16" fill="#333333">with our trusted electrolyte solutions.</text>
  
  <!-- Filter Bar -->
  <text x="50" y="220" font-family="Arial" font-size="14" fill="#666666">Filter:</text>
  <rect x="100" y="205" width="100" height="25" rx="4" stroke="#CCCCCC" fill="#FFFFFF"/>
  <text x="110" y="220" font-family="Arial" font-size="14" fill="#333333">Availability</text>
  
  <rect x="220" y="205" width="100" height="25" rx="4" stroke="#CCCCCC" fill="#FFFFFF"/>
  <text x="230" y="220" font-family="Arial" font-size="14" fill="#333333">Price</text>
  
  <text x="600" y="220" font-family="Arial" font-size="14" fill="#666666">7 products</text>
  
  <!-- Product Cards -->
  <rect x="50" y="250" width="160" height="130" rx="8" fill="#FFFFFF" stroke="#E6E6E6" stroke-width="1"/>
  <rect x="60" y="260" width="140" height="70" rx="8" fill="#F0F0F0"/>
  <text x="50" y="350" font-family="Arial" font-size="12" font-weight="bold" fill="#333333">Salt of the Earth | Lemonade</text>
  <text x="50" y="370" font-family="Arial" font-size="14" font-weight="bold" fill="#333333">From 8,289 sats | $7.99 USD</text>
  
  <!-- Bitcoin price popup -->
  <rect x="50" y="220" width="130" height="40" rx="8" fill="#F7931A"/>
  <path d="M50 240L40 240L50 225V240Z" fill="#F7931A"/>
  <text x="70" y="245" font-family="Arial" font-size="14" font-weight="bold" fill="#FFFFFF">8,289 sats</text>
  
  <rect x="230" y="250" width="160" height="130" rx="8" fill="#FFFFFF" stroke="#E6E6E6" stroke-width="1"/>
  <rect x="240" y="260" width="140" height="70" rx="8" fill="#F0F0F0"/>
  <text x="230" y="350" font-family="Arial" font-size="12" font-weight="bold" fill="#333333">Salt of the Earth | Orange</text>
  <text x="230" y="370" font-family="Arial" font-size="14" font-weight="bold" fill="#333333">From 8,289 sats | $7.99 USD</text>
  
  <!-- Bitcoin price popup -->
  <rect x="230" y="220" width="130" height="40" rx="8" fill="#F7931A"/>
  <path d="M230 240L220 240L230 225V240Z" fill="#F7931A"/>
  <text x="250" y="245" font-family="Arial" font-size="14" font-weight="bold" fill="#FFFFFF">8,289 sats</text>
  
  <rect x="410" y="250" width="160" height="130" rx="8" fill="#FFFFFF" stroke="#E6E6E6" stroke-width="1"/>
  <rect x="420" y="260" width="140" height="70" rx="8" fill="#F0F0F0"/>
  <text x="410" y="350" font-family="Arial" font-size="12" font-weight="bold" fill="#333333">Salt of the Earth | Grapefruit</text>
  <text x="410" y="370" font-family="Arial" font-size="14" font-weight="bold" fill="#333333">From 20,739 sats | $19.99 USD</text>
  
  <!-- Bitcoin price popup -->
  <rect x="410" y="220" width="130" height="40" rx="8" fill="#F7931A"/>
  <path d="M410 240L400 240L410 225V240Z" fill="#F7931A"/>
  <text x="430" y="245" font-family="Arial" font-size="14" font-weight="bold" fill="#FFFFFF">20,739 sats</text>
  
  <rect x="590" y="250" width="160" height="130" rx="8" fill="#FFFFFF" stroke="#E6E6E6" stroke-width="1"/>
  <rect x="600" y="260" width="140" height="70" rx="8" fill="#F0F0F0"/>
  <text x="590" y="350" font-family="Arial" font-size="12" font-weight="bold" fill="#333333">Salt of the Earth | Chocolate</text>
  <text x="590" y="370" font-family="Arial" font-size="14" font-weight="bold" fill="#333333">From 20,739 sats | $19.99 USD</text>
  
  <!-- Bitcoin price popup -->
  <rect x="590" y="220" width="130" height="40" rx="8" fill="#F7931A"/>
  <path d="M590 240L580 240L590 225V240Z" fill="#F7931A"/>
  <text x="610" y="245" font-family="Arial" font-size="14" font-weight="bold" fill="#FFFFFF">20,739 sats</text>
  
  <!-- Extension icon -->
  <circle cx="770" y="35" r="15" fill="#F7931A"/>
  <path d="M777 30V39H770V30H777Z" fill="white"/>
  <path d="M770 39V30L763 34.5L770 39Z" fill="white"/>
</svg>