<?xml version="1.0" encoding="UTF-8" standalone="no"?>
<svg width="600" height="400" viewBox="0 0 600 400" fill="none" xmlns="http://www.w3.org/2000/svg">
  <!-- Browser background -->
  <rect x="0" y="0" width="600" height="400" rx="10" fill="#FFFFFF" stroke="#E0E0E0" stroke-width="2"/>
  
  <!-- Browser toolbar -->
  <rect x="0" y="0" width="600" height="40" rx="10" fill="#F0F0F0"/>
  <rect x="0" y="40" width="600" height="1" fill="#E0E0E0"/>
  
  <!-- Tab -->
  <path d="M20 0H160C165.523 0 170 4.47715 170 10V40H10V10C10 4.47715 14.4772 0 20 0Z" fill="#FFFFFF"/>
  <rect x="10" y="39" width="160" height="2" fill="#FFFFFF"/>
  
  <!-- URL bar -->
  <rect x="180" y="10" width="320" height="24" rx="12" fill="#FFFFFF" stroke="#E0E0E0" stroke-width="1"/>
  <circle cx="190" cy="22" r="6" fill="#E0E0E0"/>
  <rect x="200" y="19" width="220" height="6" rx="3" fill="#E0E0E0"/>
  
  <!-- Extension icon -->
  <circle cx="520" cy="22" r="12" fill="#F7931A"/>
  <path d="M525 19.5V24.5H520V19.5H525Z" fill="white"/>
  <path d="M520 24.5V19.5L515 22L520 24.5Z" fill="white"/>
  
  <!-- Webpage with e-commerce content -->
  <rect x="20" y="60" width="560" height="320" fill="#FFFFFF"/>
  
  <!-- Product image -->
  <rect x="50" y="100" width="200" height="200" rx="8" fill="#F5F5F5"/>
  <rect x="100" y="150" width="100" height="100" rx="50" fill="#E0E0E0"/>
  
  <!-- Product details -->
  <rect x="300" y="100" width="250" height="40" rx="4" fill="#F5F5F5"/>
  <rect x="300" y="160" width="200" height="20" rx="4" fill="#F5F5F5"/>
  <rect x="300" y="190" width="180" height="20" rx="4" fill="#F5F5F5"/>
  
  <!-- Original price -->
  <rect x="300" y="230" width="120" height="30" rx="4" fill="#F5F5F5"/>
  <text x="310" y="252" font-family="Arial" font-size="18" font-weight="bold" fill="#333333">$1,499.99</text>
  
  <!-- Bitcoin price popup -->
  <rect x="430" y="210" width="140" height="70" rx="8" fill="#F7931A"/>
  <path d="M430 245L420 245L430 230V245Z" fill="#F7931A"/>
  <text x="445" y="235" font-family="Arial" font-size="14" font-weight="bold" fill="#FFFFFF">₿ 0.02487</text>
  <text x="445" y="265" font-family="Arial" font-size="14" font-weight="normal" fill="#FFFFFF">2,487,000 sats</text>
  
  <!-- Add to cart button -->
  <rect x="300" y="280" width="140" height="40" rx="6" fill="#4CAF50"/>
  <text x="325" y="305" font-family="Arial" font-size="16" font-weight="bold" fill="#FFFFFF">Add to Cart</text>
</svg>