<?xml version="1.0" encoding="UTF-8" standalone="no"?>
<svg width="48" height="48" viewBox="0 0 48 48" fill="none" xmlns="http://www.w3.org/2000/svg">
  <path d="M24 4C12.954 4 4 12.954 4 24C4 35.046 12.954 44 24 44C35.046 44 44 35.046 44 24C44 12.954 35.046 4 24 4ZM24 40C15.178 40 8 32.822 8 24C8 15.178 15.178 8 24 8C32.822 8 40 15.178 40 24C40 32.822 32.822 40 24 40Z" fill="#F7931A"/>
  <path d="M32 20H24V12H20V20H16V24H30.5C31.3284 24 32 24.6716 32 25.5V28H20V32H32C33.1046 32 34 31.1046 34 30V22C34 20.8954 33.1046 20 32 20Z" fill="#F7931A"/>
  <path d="M20 36H24V28H28V36H32V24H20V36Z" fill="#F7931A"/>
</svg>