<?xml version="1.0" encoding="UTF-8" standalone="no"?>
<svg width="800" height="400" viewBox="0 0 800 400" fill="none" xmlns="http://www.w3.org/2000/svg">
  <!-- Background -->
  <rect width="800" height="400" fill="#FFFFFF"/>
  
  <!-- Zillow navbar -->
  <rect width="800" height="50" fill="#FFFFFF" stroke="#E6E6E6" stroke-width="1"/>
  <path d="M508 25L510.585 31.9463H518L512.208 36.1074L514.792 43.0537L508 38.8926L501.208 43.0537L503.792 36.1074L498 31.9463H505.415L508 25Z" fill="#1277E1"/>
  <path d="M520 25V35H540C543.314 35 546 32.3137 546 29C546 25.6863 543.314 23 540 23H520V25Z" fill="#1277E1"/>
  <path d="M520 35L520 45H546L546 35H520Z" fill="#1277E1"/>
  
  <text x="555" y="30" font-family="Arial" font-size="16" font-weight="bold" fill="#333333">Zillow</text>
  
  <text x="85" y="30" font-family="Arial" font-size="12" fill="#333333">Buy</text>
  <text x="125" y="30" font-family="Arial" font-size="12" fill="#333333">Rent</text>
  <text x="165" y="30" font-family="Arial" font-size="12" fill="#333333">Sell</text>
  <text x="205" y="30" font-family="Arial" font-size="12" fill="#333333">Get a mortgage</text>
  <text x="305" y="30" font-family="Arial" font-size="12" fill="#333333">Find an Agent</text>
  
  <text x="650" y="30" font-family="Arial" font-size="12" fill="#333333">Manage Rentals</text>
  <text x="750" y="30" font-family="Arial" font-size="12" fill="#333333">Help</text>
  
  <!-- House image banner -->
  <rect y="50" width="800" height="150" fill="#E6E6E6"/>
  <text x="50" y="120" font-family="Arial" font-size="36" font-weight="bold" fill="#333333">Homes For You in Austin, TX</text>
  <text x="50" y="150" font-family="Arial" font-size="14" fill="#333333">Based on homes you recently viewed</text>
  
  <!-- House listings row -->
  <rect x="50" y="220" width="220" height="160" rx="8" fill="#FFFFFF" stroke="#E6E6E6" stroke-width="1"/>
  <rect x="50" y="220" width="220" height="100" rx="8" fill="#DBDBDB"/>
  <text x="60" y="350" font-family="Arial" font-size="16" font-weight="bold" fill="#333333">$615,000.00</text>
  <text x="60" y="370" font-family="Arial" font-size="14" fill="#666666">4 bd | 3 ba | 2,445 sqft</text>
  
  <!-- Bitcoin price popup -->
  <rect x="100" y="200" width="140" height="60" rx="8" fill="#F7931A"/>
  <path d="M100 230L90 230L100 215V230Z" fill="#F7931A"/>
  <text x="115" y="225" font-family="Arial" font-size="14" font-weight="bold" fill="#FFFFFF">6.3841 BTC</text>
  <text x="115" y="245" font-family="Arial" font-size="12" font-weight="normal" fill="#FFFFFF">6,384,100 sats</text>
  
  <rect x="290" y="220" width="220" height="160" rx="8" fill="#FFFFFF" stroke="#E6E6E6" stroke-width="1"/>
  <rect x="290" y="220" width="220" height="100" rx="8" fill="#DBDBDB"/>
  <text x="300" y="350" font-family="Arial" font-size="16" font-weight="bold" fill="#333333">$623,500.00</text>
  <text x="300" y="370" font-family="Arial" font-size="14" fill="#666666">4 bd | 3 ba | 2,185 sqft</text>
  
  <!-- Bitcoin price popup -->
  <rect x="340" y="200" width="140" height="60" rx="8" fill="#F7931A"/>
  <path d="M340 230L330 230L340 215V230Z" fill="#F7931A"/>
  <text x="355" y="225" font-family="Arial" font-size="14" font-weight="bold" fill="#FFFFFF">6.4723 BTC</text>
  <text x="355" y="245" font-family="Arial" font-size="12" font-weight="normal" fill="#FFFFFF">6,472,300 sats</text>
  
  <rect x="530" y="220" width="220" height="160" rx="8" fill="#FFFFFF" stroke="#E6E6E6" stroke-width="1"/>
  <rect x="530" y="220" width="220" height="100" rx="8" fill="#DBDBDB"/>
  <text x="540" y="350" font-family="Arial" font-size="16" font-weight="bold" fill="#333333">$619,000.00</text>
  <text x="540" y="370" font-family="Arial" font-size="14" fill="#666666">4 bd | 3 ba | 2,762 sqft</text>
  
  <!-- Bitcoin price popup -->
  <rect x="580" y="200" width="140" height="60" rx="8" fill="#F7931A"/>
  <path d="M580 230L570 230L580 215V230Z" fill="#F7931A"/>
  <text x="595" y="225" font-family="Arial" font-size="14" font-weight="bold" fill="#FFFFFF">6.4256 BTC</text>
  <text x="595" y="245" font-family="Arial" font-size="12" font-weight="normal" fill="#FFFFFF">6,425,600 sats</text>
  
  <!-- Extension icon -->
  <circle cx="770" cy="25" r="15" fill="#F7931A"/>
  <path d="M777 20V29H770V20H777Z" fill="white"/>
  <path d="M770 29V20L763 24.5L770 29Z" fill="white"/>
</svg>