<svg width="1100" height="1100" viewBox="0 0 1100 1100" fill="none" xmlns="http://www.w3.org/2000/svg">
<path d="M505.49 1087.3C509.514 1087.3 612.116 1087.3 616.139 1087.3C839.45 1087.3 1018.5 845.886 1018.5 550.151C1018.5 254.416 837.438 13 616.139 13C612.116 13 475.313 13 471.29 13M885.721 550.151C885.721 847.898 704.659 1087.3 483.361 1087.3C262.062 1087.3 81 845.886 81 550.151C81 254.416 262.062 13 483.361 13C704.659 13 885.721 252.405 885.721 550.151ZM416.971 463.644C416.971 431.455 439.101 409.325 473.302 409.325C491.408 409.325 509.514 417.372 521.585 427.431L523.597 421.396C509.514 409.325 489.396 401.278 471.29 401.278V359.03H465.254V401.278C433.065 403.29 410.936 427.431 410.936 463.644C410.936 566.246 527.62 517.963 525.608 614.529C525.608 650.741 501.467 674.883 465.254 674.883C441.113 674.883 416.971 660.801 402.888 638.671L398.865 644.706C414.959 668.848 441.113 684.942 465.254 684.942V733.225H473.302V684.942C509.514 682.93 533.656 656.777 533.656 616.541C533.656 509.915 416.971 558.199 416.971 463.644Z" stroke="#F08A5D" stroke-width="24.1416" stroke-miterlimit="10" stroke-linecap="round" stroke-linejoin="round"/>
</svg>
